<svg width="200" height="146" viewBox="0 0 200 146" fill="none" xmlns="http://www.w3.org/2000/svg">
<path d="M176.364 0.272705H23.6364C10.9091 0.272705 0 11.1818 0 23.9091V122.091C0 134.818 10.9091 145.727 23.6364 145.727H176.364C189.091 145.727 200 134.818 200 122.091V23.9091C200 11.1818 189.091 0.272705 176.364 0.272705ZM190.909 23.9091V122.091L127.273 73L190.909 22.0909C189.091 22.0909 190.909 23.9091 190.909 23.9091ZM176.364 9.36361C180 9.36361 183.636 11.1818 185.455 13L120 65.7272L101.818 80.2727C100 82.0909 98.1818 82.0909 96.3636 80.2727L80 65.7272L14.5455 14.8182C16.3636 11.1818 20 9.36361 23.6364 9.36361H176.364ZM10.9091 22.0909L72.7273 73L9.09091 122.091L10.9091 22.0909ZM176.364 136.636H23.6364C20 136.636 16.3636 134.818 12.7273 131.182L78.1818 78.4545L90.9091 87.5454C92.7273 89.3636 96.3636 91.1818 100 91.1818C103.636 91.1818 105.455 89.3636 109.091 87.5454L120 78.4545L187.273 131.182C194.936 123.518 182.891 136.636 176.364 136.636Z" fill="white"/>
</svg>
